#N canvas 660 16 1596 1621 10;
#X obj 119 137 TimeFilters~;
#X obj 1126 229 FrequencyShifters~;
#X obj 734 137 LFO-Based~;
#X obj 1488 112 bng 15 250 50 0 empty empty RESET_ALL 17 7 0 10 -262144
-1 -1;
#X obj 147 532 bng 15 250 50 0 empty empty Dalek 17 7 0 10 -262144
-1 -1;
#X obj 1043 75 s Dalek;
#X obj 1043 47 t b b;
#X obj 146 582 bng 15 250 50 0 empty empty Gollum 17 7 0 10 -262144
-1 -1;
#X obj 1176 49 t b b;
#X obj 1176 77 s Gollum;
#X obj 146 611 bng 15 250 50 0 empty empty Underwater 17 7 0 10 -262144
-1 -1;
#X obj 1239 47 t b b;
#X obj 146 637 bng 15 250 50 0 empty empty C-3PO 17 7 0 10 -262144
-1 -1;
#X obj 1331 49 t b b;
#X obj 1240 76 s Underwater;
#X obj 1331 76 s C-3PO;
#X obj 127 961 outlet~;
#X text 144 503 PRESETS;
#X obj 219 13 delay 500;
#X obj 281 75 readsf~;
#X obj 74 46 adc~;
#X obj 104 -31 == 0;
#X obj 156 -33 == 1;
#X obj 65 -9 spigot;
#X obj 125 -66 t b f;
#X msg 220 42 start;
#X msg 175 41 stop;
#X obj 265 -18 bng 15 250 50 0 empty empty empty 17 7 0 10 -262144
-1 -1;
#X obj 74 73 spigot~;
#X obj 146 0 spigot;
#X obj 294 -76 openpanel;
#X msg 293 36 open \$1;
#X obj 298 -42 t b s;
#X obj 302 4 symbol \$1;
#X obj 146 557 bng 15 250 50 0 empty empty Cyberman 17 7 0 10 -262144
-1 -1;
#X obj 1105 47 t b b;
#X obj 1105 75 s Cyberman;
#X obj 147 664 bng 15 250 50 0 empty empty Foreboding_Voice 17 7 0
10 -262144 -1 -1;
#X obj 268 514 Time-Delay~;
#X obj 1387 47 t b b;
#X obj 1387 74 s ForebodingVoice;
#X obj 214 104 vradio 15 1 0 2 empty empty empty 0 -8 0 10 -262144
-1 -1 1;
#X text 231 102 LIVE VOICE INPUT;
#X text 231 117 SOUND FILE INPUT;
#X connect 0 0 2 0;
#X connect 1 0 38 0;
#X connect 2 0 1 0;
#X connect 3 0 1 1;
#X connect 3 0 2 1;
#X connect 3 0 0 1;
#X connect 3 0 38 1;
#X connect 4 0 6 0;
#X connect 6 0 5 0;
#X connect 6 1 3 0;
#X connect 7 0 8 0;
#X connect 8 0 9 0;
#X connect 8 1 3 0;
#X connect 10 0 11 0;
#X connect 11 0 14 0;
#X connect 11 1 3 0;
#X connect 12 0 13 0;
#X connect 13 0 15 0;
#X connect 13 1 3 0;
#X connect 18 0 25 0;
#X connect 19 0 0 0;
#X connect 19 1 27 0;
#X connect 20 0 28 0;
#X connect 21 0 23 1;
#X connect 22 0 28 1;
#X connect 22 0 29 1;
#X connect 23 0 26 0;
#X connect 24 0 23 0;
#X connect 24 0 29 0;
#X connect 24 1 21 0;
#X connect 24 1 22 0;
#X connect 25 0 19 0;
#X connect 26 0 19 0;
#X connect 27 0 18 0;
#X connect 27 0 33 0;
#X connect 28 0 0 0;
#X connect 29 0 30 0;
#X connect 30 0 32 0;
#X connect 31 0 19 0;
#X connect 32 0 27 0;
#X connect 32 1 33 0;
#X connect 33 0 31 0;
#X connect 34 0 35 0;
#X connect 35 0 36 0;
#X connect 35 1 3 0;
#X connect 37 0 39 0;
#X connect 38 0 16 0;
#X connect 39 0 40 0;
#X connect 39 1 3 0;
#X connect 41 0 24 0;
#X coords 0 -1 1 1 1500 850 1 100 100;
