#N canvas 739 172 958 989 10;
#X obj 126 146 hsl 300 15 -1000 1000 0 0 empty empty empty -2 -8 0
10 -262113 -1 -1 7627 1;
#X text 121 128 -1000;
#X text 403 129 1000;
#X floatatom 439 146 5 0 0 1 Hz - -;
#X obj 629 73 sig~;
#X obj 628 114 phasor~;
#X obj 673 147 +~ -0.25;
#X obj 672 179 cos~;
#X obj 625 178 cos~;
#X obj 549 177 hilbert~;
#X obj 547 255 *~;
#X obj 595 252 *~;
#X obj 546 295 -~;
#X obj 35 115 inlet~;
#X obj 24 281 outlet~;
#X msg 154 78 0;
#X obj 154 42 loadbang;
#X obj 409 108 bng 15 250 50 0 empty empty RESET 17 7 0 10 -262144
-1 -1;
#X obj 412 33 inlet;
#X obj 122 171 MyMixer~;
#X msg 306 75 0.8;
#X obj 280 33 r Cyberman;
#X msg 261 73 -500;
#X connect 0 0 3 0;
#X connect 3 0 4 0;
#X connect 4 0 5 0;
#X connect 5 0 6 0;
#X connect 5 0 8 0;
#X connect 6 0 7 0;
#X connect 7 0 11 1;
#X connect 8 0 10 1;
#X connect 9 0 10 0;
#X connect 9 1 11 0;
#X connect 10 0 12 0;
#X connect 11 0 12 1;
#X connect 12 0 19 2;
#X connect 13 0 9 0;
#X connect 13 0 19 0;
#X connect 15 0 0 0;
#X connect 15 0 19 1;
#X connect 16 0 15 0;
#X connect 17 0 16 0;
#X connect 18 0 17 0;
#X connect 19 0 14 0;
#X connect 20 0 19 1;
#X connect 21 0 22 0;
#X connect 21 0 20 0;
#X connect 22 0 0 0;
#X coords 0 -1 1 1 400 160 1 100 100;
