#N canvas 0 0 3200 1636 10;
#X obj 112 154 hsl 128 15 0 50 0 0 empty empty SPEED 55 7 0 10 -260129
-1 -1 7620 1;
#X obj 113 190 hsl 128 15 0 1 0 0 empty empty DEPTH 55 7 0 10 -84672
-1 -1 12700 1;
#X obj 186 107 vradio 15 1 0 2 empty empty empty 0 -8 0 10 -262144
-1 -1 1;
#X floatatom 248 153 5 0 0 1 Hz - -;
#X floatatom 247 191 5 0 0 0 - - -;
#X obj 252 113 bng 15 250 50 0 empty empty RESET 17 7 0 10 -262144
-1 -1;
#X obj 72 53 inlet;
#X text 234 206 1;
#X text 106 206 0;
#X text 105 167 0;
#X text 227 167 50;
#X text 205 123 SINE;
#X text 104 220 WAVE;
#X text 178 221 SPD;
#X text 265 221 DPT;
#X obj 34 -5 loadbang;
#X floatatom 127 81 5 0 0 0 - - -;
#X floatatom 43 116 5 0 0 0 - - -;
#X obj 14 62 f \$1;
#X obj 120 49 f \$2;
#X obj 156 38 inlet;
#X obj 281 44 inlet;
#X text 205 106 SQUARE;
#X obj 85 24 bng 15 250 50 0 empty empty empty 17 7 0 10 -262144 -1
-1;
#X obj 413 133 s \$0-reset;
#X obj 366 202 s \$0-speed;
#X obj 366 242 s \$0-depth;
#X obj 99 -4 r \$0-reset;
#X obj 366 172 s \$0-choice;
#X obj 338 142 t b f;
#X obj 213 49 inlet;
#X obj 169 66 f \$3;
#X obj 459 160 == 0;
#X obj 460 191 s \$0-not-choice;
#X obj 1672 820 osc~;
#X obj 1670 887 clip~ -1 1;
#X obj 1732 925 *~;
#X obj 1671 855 *~ 1e+016;
#X obj 1817 818 osc~;
#X obj 1818 928 *~;
#X floatatom 1670 727 5 0 0 0 - - -;
#X floatatom 1870 732 5 0 0 0 - - -;
#X floatatom 1744 729 5 0 0 0 - - -;
#X floatatom 1931 739 5 0 0 0 - - -;
#X obj 1599 596 spigot;
#X obj 1671 596 spigot;
#X obj 1879 602 spigot;
#X obj 1937 602 spigot;
#X obj 1750 673 spigot;
#X obj 1825 656 spigot;
#X floatatom 1758 610 5 0 0 0 - - -;
#X obj 1762 574 bng 15 250 50 0 empty empty empty 17 7 0 10 -262144
-1 -1;
#X obj 1816 730 == 0;
#X obj 1787 754 spigot;
#X obj 1757 462 r \$0-reset;
#X obj 1671 540 r \$0-depth;
#X obj 1597 539 r \$0-speed;
#X obj 1845 545 r \$0-speed;
#X obj 1924 544 r \$0-depth;
#X obj 1861 991 r \$0-speed;
#X obj 1947 992 r \$0-depth;
#X obj 1785 707 r \$0-speed;
#X obj 1867 461 r \$0-choice;
#X obj 1653 462 r \$0-not-choice;
#X obj 1799 588 swap;
#X obj 843 793 osc~;
#X obj 864 877 clip~ -1 1;
#X obj 921 922 *~;
#X obj 846 831 *~ 1e+016;
#X obj 996 798 osc~;
#X obj 994 925 *~;
#X floatatom 820 709 5 0 0 0 - - -;
#X floatatom 1046 708 5 0 0 0 - - -;
#X floatatom 918 735 5 0 0 0 - - -;
#X floatatom 1103 715 5 0 0 0 - - -;
#X obj 766 574 spigot;
#X obj 838 574 spigot;
#X obj 1029 600 spigot;
#X obj 1087 600 spigot;
#X obj 947 510 == 0;
#X obj 917 632 spigot;
#X obj 990 624 spigot;
#X floatatom 925 588 5 0 0 0 - - -;
#X obj 925 567 bng 15 250 50 0 empty empty empty 17 7 0 10 -262144
-1 -1;
#X obj 970 646 bng 15 250 50 0 empty empty empty 17 7 0 10 -262144
-1 -1;
#X obj 979 739 == 0;
#X obj 961 762 spigot;
#X obj 905 466 r \$0-reset;
#X obj 838 518 r \$0-depth;
#X obj 764 517 r \$0-speed;
#X obj 1017 541 r \$0-speed;
#X obj 1093 543 r \$0-depth;
#X obj 1032 964 r \$0-speed;
#X obj 1118 965 r \$0-depth;
#X obj 962 712 r \$0-speed;
#X obj 1005 468 r \$0-choice;
#X obj 1808 491 t b f;
#X obj 1716 490 t b f;
#X obj 1740 1078 outlet~;
#X obj 1861 1062 outlet~;
#X obj 1945 1061 outlet~;
#X connect 0 0 3 0;
#X connect 1 0 4 0;
#X connect 2 0 29 0;
#X connect 3 0 25 0;
#X connect 4 0 26 0;
#X connect 5 0 24 0;
#X connect 6 0 17 0;
#X connect 15 0 23 0;
#X connect 16 0 1 0;
#X connect 17 0 0 0;
#X connect 18 0 17 0;
#X connect 19 0 16 0;
#X connect 20 0 16 0;
#X connect 21 0 5 0;
#X connect 23 0 19 0;
#X connect 23 0 18 0;
#X connect 23 0 31 0;
#X connect 27 0 23 0;
#X connect 29 0 3 0;
#X connect 29 0 4 0;
#X connect 29 1 28 0;
#X connect 29 1 32 0;
#X connect 30 0 2 0;
#X connect 31 0 2 0;
#X connect 32 0 33 0;
#X connect 34 0 37 0;
#X connect 35 0 36 0;
#X connect 36 0 98 0;
#X connect 37 0 35 0;
#X connect 38 0 39 0;
#X connect 39 0 98 0;
#X connect 40 0 34 0;
#X connect 41 0 38 0;
#X connect 42 0 36 1;
#X connect 43 0 39 1;
#X connect 44 0 40 0;
#X connect 45 0 42 0;
#X connect 46 0 41 0;
#X connect 47 0 43 0;
#X connect 48 0 40 0;
#X connect 48 0 42 0;
#X connect 49 0 41 0;
#X connect 49 0 43 0;
#X connect 50 0 48 0;
#X connect 50 0 49 0;
#X connect 51 0 50 0;
#X connect 52 0 53 1;
#X connect 53 0 34 1;
#X connect 53 0 38 1;
#X connect 54 0 51 0;
#X connect 55 0 45 0;
#X connect 56 0 44 0;
#X connect 57 0 46 0;
#X connect 58 0 47 0;
#X connect 59 0 99 0;
#X connect 60 0 100 0;
#X connect 61 0 52 0;
#X connect 61 0 53 0;
#X connect 62 0 46 1;
#X connect 62 0 47 1;
#X connect 62 0 64 1;
#X connect 62 0 96 0;
#X connect 63 0 44 1;
#X connect 63 0 45 1;
#X connect 63 0 97 0;
#X connect 64 0 48 1;
#X connect 64 1 49 1;
#X connect 65 0 68 0;
#X connect 66 0 67 0;
#X connect 68 0 66 0;
#X connect 69 0 70 0;
#X connect 71 0 65 0;
#X connect 72 0 69 0;
#X connect 73 0 67 1;
#X connect 74 0 70 1;
#X connect 75 0 71 0;
#X connect 76 0 73 0;
#X connect 77 0 72 0;
#X connect 78 0 74 0;
#X connect 79 0 75 1;
#X connect 79 0 76 1;
#X connect 79 0 81 1;
#X connect 80 0 71 0;
#X connect 80 0 73 0;
#X connect 81 0 72 0;
#X connect 81 0 74 0;
#X connect 82 0 80 0;
#X connect 82 0 81 0;
#X connect 83 0 82 0;
#X connect 84 0 71 0;
#X connect 84 0 73 0;
#X connect 84 0 72 0;
#X connect 84 0 74 0;
#X connect 85 0 86 1;
#X connect 86 0 65 1;
#X connect 86 0 69 1;
#X connect 87 0 79 0;
#X connect 87 0 83 0;
#X connect 88 0 76 0;
#X connect 89 0 75 0;
#X connect 90 0 77 0;
#X connect 91 0 78 0;
#X connect 94 0 85 0;
#X connect 94 0 86 0;
#X connect 95 0 79 0;
#X connect 95 0 77 1;
#X connect 95 0 78 1;
#X connect 95 0 80 1;
#X connect 95 0 83 0;
#X connect 95 0 84 0;
#X connect 96 0 51 0;
#X connect 96 1 64 1;
#X connect 97 0 51 0;
#X connect 97 1 64 0;
#X coords 0 -1 1 1 200 140 1 100 100;
