#N canvas 509 438 450 300 10;
#X obj 32 50 inlet~;
#X obj 32 191 outlet~;
#X obj 33 123 lop~;
#X obj 124 147 hsl 150 15 0 10000 0 0 empty empty Low-Pass_Cut-Off_Frequency
-2 -8 0 10 -121495 -1 -1 14900 1;
#X msg 119 69 10000;
#X obj 119 46 loadbang;
#X obj 291 110 bng 15 250 50 0 empty empty RESET 17 7 0 10 -262144
-1 -1;
#X obj 265 73 inlet;
#X floatatom 285 147 5 0 0 1 Hz - -;
#X connect 0 0 2 0;
#X connect 2 0 1 0;
#X connect 3 0 2 1;
#X connect 3 0 8 0;
#X connect 4 0 3 0;
#X connect 5 0 4 0;
#X connect 6 0 5 0;
#X connect 7 0 6 0;
#X coords 0 -1 1 1 250 70 1 100 100;
