#N canvas 720 73 797 663 10;
#X obj 126 151 hsl 300 15 0 1 0 0 empty empty empty -2 -8 0 10 -133184
-1 -1 29900 1;
#X text 121 127 Original Signal;
#X text 274 128 Manipulated Signal;
#X obj 155 280 - 1;
#X obj 152 348 abs;
#X obj 317 544 outlet~;
#X obj 185 238 inlet~;
#X obj 407 248 inlet~;
#X obj 270 393 *~;
#X obj 356 385 *~;
#X obj 326 459 +~;
#X floatatom 172 397 5 0 0 0 - - -;
#X floatatom 223 198 5 0 0 0 - - -;
#X obj 88 338 loadbang;
#X msg 91 386 1;
#X obj 312 58 inlet;
#X floatatom 217 128 5 0 0 1 % - -;
#X floatatom 387 129 5 0 0 1 % - -;
#X obj 278 226 * 100;
#X obj 206 444 * 100;
#X connect 0 0 3 0;
#X connect 0 0 12 0;
#X connect 3 0 4 0;
#X connect 4 0 11 0;
#X connect 6 0 8 0;
#X connect 7 0 9 0;
#X connect 8 0 10 0;
#X connect 9 0 10 1;
#X connect 10 0 5 0;
#X connect 11 0 8 1;
#X connect 11 0 19 0;
#X connect 12 0 9 1;
#X connect 12 0 18 0;
#X connect 13 0 14 0;
#X connect 14 0 11 0;
#X connect 15 0 0 0;
#X connect 18 0 17 0;
#X connect 19 0 16 0;
#X coords 0 -1 1 1 350 80 1 100 100;
