#N canvas 1146 370 772 575 10;
#X obj 180 379 *~;
#X obj 242 105 LFO~ \$1 \$2;
#X obj 130 277 inlet~;
#X obj 156 436 outlet~;
#X obj 458 54 inlet;
#X msg 190 69 1;
#X msg 148 68 30;
#X obj 116 130 bng 15 250 50 0 empty empty Dalek 17 7 0 10 -262144
-1 -1;
#X obj 145 10 r Dalek;
#X msg 241 68 50;
#X obj 234 15 r Cyberman;
#X connect 0 0 3 0;
#X connect 1 0 0 1;
#X connect 2 0 0 0;
#X connect 4 0 1 3;
#X connect 5 0 1 1;
#X connect 5 0 1 2;
#X connect 6 0 1 0;
#X connect 7 0 6 0;
#X connect 7 0 5 0;
#X connect 8 0 7 0;
#X connect 9 0 1 0;
#X connect 10 0 9 0;
#X connect 10 0 5 0;
#X coords 0 -1 1 1 350 150 1 100 100;
