#N canvas 192 70 945 818 10;
#X obj 102 41 inlet~;
#X obj 108 570 outlet~;
#X obj 713 117 bng 15 250 50 0 empty empty RESET_ALL_TIME_DELAY_MODULATORS
17 7 0 10 -262144 -1 -1;
#X obj 318 48 inlet;
#X obj 107 127 Delay~;
#X obj 518 144 Flanger~;
#X obj 108 314 Reverb~;
#X connect 0 0 4 0;
#X connect 2 0 4 1;
#X connect 2 0 5 1;
#X connect 2 0 6 1;
#X connect 3 0 2 0;
#X connect 4 0 6 0;
#X connect 5 0 1 0;
#X connect 6 0 5 0;
#X coords 0 -1 1 1 830 400 1 100 100;
