#N canvas 764 78 958 988 10;
#X obj 592 168 phasor~;
#X obj 637 201 +~ -0.25;
#X obj 636 233 cos~;
#X obj 589 232 cos~;
#X obj 513 231 hilbert~;
#X obj 511 309 *~;
#X obj 559 306 *~;
#X obj 510 349 -~;
#X obj 35 115 inlet~;
#X obj 125 286 MyMixer~;
#X obj 39 419 outlet~;
#X msg 154 78 0;
#X obj 154 42 loadbang;
#X obj 409 108 bng 15 250 50 0 empty empty RESET 17 7 0 10 -262144
-1 -1;
#X obj 412 33 inlet;
#X obj 154 129 LFO~ \$1 \$2;
#X obj 379 144 bng 15 250 50 0 empty empty Gollum 17 7 0 10 -262144
-1 -1;
#X obj 274 6 r Gollum;
#X msg 317 56 1;
#X msg 237 55 50;
#X text 359 219 NOTE: Depth is *1000;
#X msg 272 55 0.35;
#X obj 587 141 *~ 1000;
#X connect 0 0 1 0;
#X connect 0 0 3 0;
#X connect 1 0 2 0;
#X connect 2 0 6 1;
#X connect 3 0 5 1;
#X connect 4 0 5 0;
#X connect 4 1 6 0;
#X connect 5 0 7 0;
#X connect 6 0 7 1;
#X connect 7 0 9 2;
#X connect 8 0 9 0;
#X connect 8 0 4 0;
#X connect 9 0 10 0;
#X connect 11 0 9 1;
#X connect 12 0 11 0;
#X connect 13 0 12 0;
#X connect 13 0 15 3;
#X connect 14 0 13 0;
#X connect 15 0 22 0;
#X connect 16 0 18 0;
#X connect 16 0 19 0;
#X connect 16 0 21 0;
#X connect 17 0 16 0;
#X connect 18 0 15 2;
#X connect 18 0 9 1;
#X connect 19 0 15 0;
#X connect 21 0 15 1;
#X connect 22 0 0 0;
#X coords 0 -1 1 1 400 275 1 100 100;
